# xmcd
#
# Track frame offsets: 
#        150
#        10358
#        20739
#        34031
#        44703
#        57330
#        68029
#        79006
#        91575
#        104693
#        114863
#        127462
#
# Disc length: 1812 seconds
#
# Revision: 0
# Processed by: cddbd v1.5.2PL0 Copyright (c) Steve Scherf et al.
# Submitted via: ExactAudioCopy v0.99pb4
#
DISCID=a207120c
DTITLE=Buck Owens - All-Time Greatest Hits Vol. 1
DYEAR=1990
DGENRE=Classic Country
TTITLE0=Act Naturally
TTITLE1=Streets of Bakersfield
TTITLE2=Together Again
TTITLE3=Before You Go
TTITLE4=Made in Japan
TTITLE5=Foolin' Around
TTITLE6=I've Got a Tiger By the Tail
TTITLE7=Under Your Spell Again
TTITLE8=Think of Me
TTITLE9=Who's Gonna Mow Your Grass
TTITLE10=Excuse Me (I Think I've Got a Heartache)
TTITLE11=Big in Vegas
EXTD=
EXTT0=
EXTT1=
EXTT2=
EXTT3=
EXTT4=
EXTT5=
EXTT6=
EXTT7=
EXTT8=
EXTT9=
EXTT10=
EXTT11=
PLAYORDER=
